<svg id="Layer_1" data-name="Layer 1" xmlns="http://www.w3.org/2000/svg" viewBox="0 0 58.14 55.9"><defs><style>.cls-1{fill:#dcb68a;}.cls-2{fill:#533112;}</style></defs><title>Cookie</title><path class="cls-1" d="M56.74,38.34c-2.82,6-7.66,10.93-13.15,14.68a31.63,31.63,0,0,1-8.86,4.4,25.21,25.21,0,0,1-16.55-1.23A33.66,33.66,0,0,1,5,45.87,15.73,15.73,0,0,1,2.15,41a17.29,17.29,0,0,1-.67-3.8C.86,30.87.86,24.38,2.82,18.34S8.93,6.76,14.76,4.28A25.11,25.11,0,0,1,24.17,2.4c2.51.08,5,.24,7.55.55a26.81,26.81,0,0,0,.53,5.73c.11.53.24,1.06.38,1.59,0,.15.09.3.13.45.14.49.3,1,.47,1.45.06.17.12.34.19.51.2.52.42,1,.65,1.55a17.88,17.88,0,0,0,7.71,8.62,15.69,15.69,0,0,0,2.29.93h0a14.16,14.16,0,0,0,1.42.38,30.14,30.14,0,0,0,5.27.66A25.74,25.74,0,0,0,59,24.21,25.47,25.47,0,0,1,56.74,38.34Z" transform="translate(-1.11 -2.39)"/><path class="cls-2" d="M16.29,17.74a3.48,3.48,0,0,0-2.38,2.36.74.74,0,0,0,0,.14,5.74,5.74,0,0,0-.09.71,3.07,3.07,0,0,0,.1.91,3.16,3.16,0,0,0,.51,1.1,8.05,8.05,0,0,0,1.25,1.42,4.65,4.65,0,0,0,2,1.14,3.82,3.82,0,0,0,1.78,0,2.58,2.58,0,0,0,.55-.2,2.44,2.44,0,0,0,.56-.28,4.12,4.12,0,0,0,1.19-1.2,3.31,3.31,0,0,0,.47-1.09,3.72,3.72,0,0,0,.13-1.25,7,7,0,0,0-.13-.9,6,6,0,0,0-.37-.95,3.68,3.68,0,0,0-.67-1,2.83,2.83,0,0,0-.7-.55A3.13,3.13,0,0,0,19,17.73l-.87-.09A2.63,2.63,0,0,0,15.32,21a4.75,4.75,0,0,0,.4.89l.41.78a2.55,2.55,0,0,0,1.5,1.15,1.86,1.86,0,0,0,1,0,1.9,1.9,0,0,0,.93-.3,2.48,2.48,0,0,0,1.15-1.49,2.7,2.7,0,0,0-.25-1.93c-.19-.36-.38-.71-.56-1.07l.25.59,0-.1.09.67v-.05l-.34,1.26,0,0-.39.5,0,0L19,22.3h0l-.59.25h0l-.66.09c.2,0,.41,0,.61.05l.62.06-.67-.09.16.05-.6-.25.09,0-.5-.39.11.12-.39-.5a2,2,0,0,1,.26.47l-.25-.6a2.46,2.46,0,0,1,.15.53l-.09-.67a2,2,0,0,1,0,.49l.09-.67a2.11,2.11,0,0,1-.09.36l.25-.6a1.51,1.51,0,0,1-.2.35l.39-.5a3,3,0,0,1-.25.25l.51-.39a1.74,1.74,0,0,1-.26.15l.59-.25-.3.08.67-.09a1.6,1.6,0,0,1-.31,0l.67.09a1.82,1.82,0,0,1-.4-.11l.6.25a2.36,2.36,0,0,1-.51-.3l.5.39a6.23,6.23,0,0,1-.95-1l.39.51a3.14,3.14,0,0,1-.24-.39l.26.59a.83.83,0,0,1-.06-.21l.08.67a1.85,1.85,0,0,1,0-.24l-.09.66a.86.86,0,0,1,.06-.23l-.25.6a1.07,1.07,0,0,1,.13-.21l-.39.5.17-.17-.51.4.17-.1-.6.25.14-.05a2.58,2.58,0,0,0,1.49-1.14,1.86,1.86,0,0,0,.3-.93,1.89,1.89,0,0,0-.05-1A2.54,2.54,0,0,0,18.22,18a2.7,2.7,0,0,0-1.93-.25Z" transform="translate(-1.11 -2.39)"/><path class="cls-2" d="M33.42,12.68h-.07a1.16,1.16,0,0,1-.57-.36,1.18,1.18,0,0,1-.72-.15,1.24,1.24,0,0,1-.55-.72,2.75,2.75,0,0,1,.68-2.71l.06-.05c.11.53.24,1.06.38,1.59,0,.15.09.3.13.45.14.49.3,1,.47,1.45C33.29,12.34,33.35,12.51,33.42,12.68Z" transform="translate(-1.11 -2.39)"/><path class="cls-2" d="M48,28.12a3.42,3.42,0,0,1-.46,1.71,3,3,0,0,1-1.14,1.09,3.49,3.49,0,0,1-1.59.42,5.07,5.07,0,0,1-1-.11,4.39,4.39,0,0,1-.94-.27,5,5,0,0,1-1-.48,4.19,4.19,0,0,1-.8-.66,4,4,0,0,1-.84-1.42,3.72,3.72,0,0,1-.18-1,3.38,3.38,0,0,1,1-2.46,2.47,2.47,0,0,1,1.61-.72h0A2.8,2.8,0,0,1,44,23.78h.11a14.16,14.16,0,0,0,1.42.38l.06,0a4.13,4.13,0,0,1,.9.65,3.06,3.06,0,0,1,.36.36,5.93,5.93,0,0,1,.63.86A4.23,4.23,0,0,1,48,28.12Z" transform="translate(-1.11 -2.39)"/><path class="cls-2" d="M26.72,27a3.11,3.11,0,0,0-2.1,2.12.9.9,0,0,0,0,.16,4.38,4.38,0,0,0-.1.8,3.52,3.52,0,0,0,.4,1.53A4,4,0,0,0,26.27,33a5.88,5.88,0,0,0,1.34.64,4.81,4.81,0,0,0,1.05.18,3.09,3.09,0,0,0,1.05-.12,3.31,3.31,0,0,0,2-1.55,3.24,3.24,0,0,0,.41-1.58A3,3,0,0,0,32,29.51a3.57,3.57,0,0,0-1-1.6,4.8,4.8,0,0,0-.81-.59c-.25-.11-.5-.22-.76-.31L29.17,27a4.39,4.39,0,0,0-1-.11,4,4,0,0,0-1,.17,1.94,1.94,0,0,0-.85.45,1.8,1.8,0,0,0-.64.7,1.77,1.77,0,0,0-.3.93,2,2,0,0,0,0,1l.26.59a2.48,2.48,0,0,0,.89.9l.6.25a2.5,2.5,0,0,0,1.33,0,1.37,1.37,0,0,1,.29-.07l-.67.09a1.53,1.53,0,0,1,.37,0l-.67-.09a1.74,1.74,0,0,1,.39.11l-.6-.25a2,2,0,0,1,.32.18l-.51-.39a1.6,1.6,0,0,1,.26.26l-.39-.5a1.28,1.28,0,0,1,.15.25l-.25-.59a1.29,1.29,0,0,1,.08.28l-.09-.67a1.13,1.13,0,0,1,0,.26l.09-.67a.55.55,0,0,1,0,.17l.26-.6-.09.15.39-.51a.8.8,0,0,1-.13.13l.51-.39-.19.1.6-.25a1,1,0,0,1-.25.07l.67-.09a1.14,1.14,0,0,1-.32,0l.66.09a1.86,1.86,0,0,1-.46-.13l.6.25a3.19,3.19,0,0,1-.72-.41l.51.4a2,2,0,0,1-.25-.25l.39.51a1.76,1.76,0,0,1-.14-.23l.25.6a1.6,1.6,0,0,1-.05-.21l.09.66a.61.61,0,0,1,0-.19l-.09.66a.8.8,0,0,1,.05-.21l-.25.6a.51.51,0,0,1,.09-.16l-.39.51a.34.34,0,0,1,.09-.08l-.51.39a.27.27,0,0,1,.1-.06l-.59.25.05,0a2.87,2.87,0,0,0,1.5-1.15,1.85,1.85,0,0,0,.29-.93,1.89,1.89,0,0,0,0-1l-.25-.6a2.56,2.56,0,0,0-.9-.89l-.6-.26a2.72,2.72,0,0,0-1.33,0Z" transform="translate(-1.11 -2.39)"/><path class="cls-2" d="M17,33a3.21,3.21,0,0,0-1.57,0,3.14,3.14,0,0,0-1.34.79,2.76,2.76,0,0,0-.54.74,4.17,4.17,0,0,0-.3.74c0,.13,0,.28-.06.39s0,.28,0,.42a3.37,3.37,0,0,0,1,2.32,3.47,3.47,0,0,0,.37.3c.13.1.25.2.39.29a4.1,4.1,0,0,0,1.89.54,3.8,3.8,0,0,0,1-.1,1.46,1.46,0,0,0,.3-.07c.23-.09.48-.19.7-.3l.16-.1a5.09,5.09,0,0,0,.58-.46,3.36,3.36,0,0,0,.47-.6,2.55,2.55,0,0,0,.36-.83,3.42,3.42,0,0,0,0-1.59,3.33,3.33,0,0,0-.78-1.38,1.14,1.14,0,0,0-.15-.16c-.16-.14-.36-.28-.53-.41l-.11-.07a2.93,2.93,0,0,0-1-.39A4.23,4.23,0,0,0,16.58,33c-.39.05-.78.1-1.17.18a1.89,1.89,0,0,0-.85.45,1.87,1.87,0,0,0-.64.7,1.77,1.77,0,0,0-.3.93,1.89,1.89,0,0,0,0,1l.26.6a2.53,2.53,0,0,0,.89.89l.6.26a2.72,2.72,0,0,0,1.33,0,3.73,3.73,0,0,1,.46-.09l-.66.09a2.09,2.09,0,0,1,.5,0l-.66-.09a1.25,1.25,0,0,1,.32.08l-.6-.25a1,1,0,0,1,.22.13l-.5-.39a1.53,1.53,0,0,1,.18.18l-.39-.51.09.16-.25-.59a.47.47,0,0,1,0,.17l-.09-.66a.38.38,0,0,1,0,.15l.09-.67a1.16,1.16,0,0,1,0,.18l.25-.6-.08.13.39-.51-.14.14.5-.39a1.09,1.09,0,0,1-.23.14l.6-.26a1,1,0,0,1-.33.09l.67-.09a1.51,1.51,0,0,1-.37,0l.67.09a1.82,1.82,0,0,1-.4-.11l.6.25a1.92,1.92,0,0,1-.31-.18l.51.39a1.62,1.62,0,0,1-.19-.18l.39.51a.94.94,0,0,1-.12-.22l.25.6a1.21,1.21,0,0,1-.05-.18l.09.66a.48.48,0,0,1,0-.17l-.09.67a1.46,1.46,0,0,1,.05-.2l-.25.6a1.62,1.62,0,0,1,.1-.18l-.39.51.12-.12-.5.39.14-.08-.6.25.1,0-.66.09h.13l-.66-.09h0a2,2,0,0,0,1,0,1.8,1.8,0,0,0,.92-.3,1.83,1.83,0,0,0,.71-.64,1.83,1.83,0,0,0,.44-.85l.09-.67a2.43,2.43,0,0,0-.34-1.26l-.39-.5A2.52,2.52,0,0,0,17,33Z" transform="translate(-1.11 -2.39)"/><path class="cls-2" d="M30.55,16.89a3,3,0,0,0-1.57,0,3.07,3.07,0,0,0-1.33.79,2.69,2.69,0,0,0-.55.74,4.17,4.17,0,0,0-.3.74c0,.12,0,.28-.05.39a2.55,2.55,0,0,0-.05.42,3.34,3.34,0,0,0,1,2.31,3.68,3.68,0,0,0,.38.31c.12.09.25.2.38.28a4.5,4.5,0,0,0,.93.4,5.32,5.32,0,0,0,1,.15,3.88,3.88,0,0,0,1-.1,1.67,1.67,0,0,0,.3-.08,5.93,5.93,0,0,0,.69-.29l.16-.1a4.34,4.34,0,0,0,.58-.46,4.51,4.51,0,0,0,.48-.6,2.53,2.53,0,0,0,.35-.83,3.29,3.29,0,0,0,0-1.59A3.2,3.2,0,0,0,33.09,18a1.21,1.21,0,0,0-.16-.16c-.16-.14-.36-.29-.53-.41a.41.41,0,0,0-.11-.07,2.93,2.93,0,0,0-1-.39,4.18,4.18,0,0,0-1.17-.09,11.82,11.82,0,0,0-1.17.18,2,2,0,0,0-.85.45,1.88,1.88,0,0,0-.64.7,2,2,0,0,0-.3.93,1.9,1.9,0,0,0,0,1l.25.59a2.43,2.43,0,0,0,.9.9l.59.25a2.5,2.5,0,0,0,1.33,0l.47-.08-.67.09a2.18,2.18,0,0,1,.51,0l-.67-.08a1.16,1.16,0,0,1,.32.08l-.6-.25a.76.76,0,0,1,.23.13l-.51-.39a.77.77,0,0,1,.18.18L29.16,21a.51.51,0,0,1,.09.16L29,20.6a1.21,1.21,0,0,1,.05.18L29,20.12v.14l.09-.66a.84.84,0,0,1-.05.17l.25-.59-.08.12.4-.5a1,1,0,0,1-.15.14l.51-.39a1,1,0,0,1-.23.13l.59-.25a1.68,1.68,0,0,1-.32.09l.66-.09a1.09,1.09,0,0,1-.36,0l.66.09a1.34,1.34,0,0,1-.39-.11l.59.25a1.09,1.09,0,0,1-.31-.18l.51.4a1.53,1.53,0,0,1-.18-.18l.39.5a1.2,1.2,0,0,1-.13-.21l.25.59a1.09,1.09,0,0,1-.05-.17l.09.66V19.9l-.09.66a1.39,1.39,0,0,1,.06-.19l-.25.6a.64.64,0,0,1,.1-.18l-.39.51a.34.34,0,0,1,.12-.12l-.51.39.14-.08-.6.25.11,0-.67.09a.33.33,0,0,1,.14,0l-.67-.09h0a1.89,1.89,0,0,0,1,.05,2.26,2.26,0,0,0,1.63-.94A2,2,0,0,0,32.3,20l.09-.67A2.53,2.53,0,0,0,32.05,18l-.39-.51a2.53,2.53,0,0,0-1.11-.64Z" transform="translate(-1.11 -2.39)"/><path class="cls-2" d="M8.74,24.86a3.25,3.25,0,0,0-.82.12c-.19.06-.45.18-.63.26l-.08.05a3.27,3.27,0,0,0-1.13,1.12,2.81,2.81,0,0,0-.38.87,2.78,2.78,0,0,0-.12,1A3.46,3.46,0,0,0,6,29.85a1.28,1.28,0,0,0,.11.2,5.59,5.59,0,0,0,.52.66A4.57,4.57,0,0,0,8.4,31.78a2.11,2.11,0,0,0,.49.14,6.53,6.53,0,0,0,.85.11h.14a4.79,4.79,0,0,0,.76-.1,1.09,1.09,0,0,0,.24-.07,3.94,3.94,0,0,0,.73-.32,3.68,3.68,0,0,0,1.15-1.14,2.54,2.54,0,0,0,.39-.91,3.26,3.26,0,0,0,0-1.67,3.45,3.45,0,0,0-.77-1.32,3.42,3.42,0,0,0-.78-.64,2.42,2.42,0,0,0-.39-.21,8,8,0,0,0-1-.39,3.46,3.46,0,0,0-1.66,0l-.09,0a6.06,6.06,0,0,0-.65.28,2.74,2.74,0,0,0-1,1,1.8,1.8,0,0,0-.3.92,1.89,1.89,0,0,0,0,1,1.78,1.78,0,0,0,.44.85,2,2,0,0,0,.7.65,2.55,2.55,0,0,0,1.93.25A2.6,2.6,0,0,0,11.09,29l0-.05-.39.5,0,0-.51.39.05,0-.59.25a.2.2,0,0,1,.11,0l-.66.09h.16L8.68,30a2.47,2.47,0,0,1,.57.17L8.65,30a2.48,2.48,0,0,1,.47.27l-.51-.39a1.45,1.45,0,0,1,.22.21l-.39-.51a1.4,1.4,0,0,1,.09.17l-.25-.6a1.33,1.33,0,0,1,.05.19l-.09-.66v.17l.09-.66a.85.85,0,0,1-.06.17l.26-.59a1.3,1.3,0,0,1-.1.15l.39-.5a.77.77,0,0,1-.18.18l.51-.39-.2.11.6-.25a1.38,1.38,0,0,1-.29.08L9.93,27a1.51,1.51,0,0,1-.37,0l.66.09A1.71,1.71,0,0,1,9.73,27l.59.25a2.27,2.27,0,0,1-.48-.27l.51.39a1.48,1.48,0,0,1-.28-.28l.39.51a1.35,1.35,0,0,1-.15-.26l.25.59a1.09,1.09,0,0,1-.07-.24l.09.66a.89.89,0,0,1,0-.23l-.09.66a2,2,0,0,1,.07-.26l-.25.6.12-.2-.39.5a.86.86,0,0,1,.14-.13l-.5.39a.57.57,0,0,1,.13-.08l-.59.25.15,0-.66.09h0a1.9,1.9,0,0,0,1-.22,1.82,1.82,0,0,0,.8-.52,1.85,1.85,0,0,0,.52-.8,2,2,0,0,0,.21-1l-.09-.67a2.5,2.5,0,0,0-.64-1.1L10,25.2a2.43,2.43,0,0,0-1.26-.34Z" transform="translate(-1.11 -2.39)"/><path class="cls-2" d="M32.92,35.38a7.14,7.14,0,0,0-.79.11l-.07,0c-.19.07-.43.17-.62.26l-.13.07-.06,0c-.18.13-.37.27-.54.42a3.63,3.63,0,0,0-.55.69l-.08.13a6.44,6.44,0,0,0-.3.72,3.8,3.8,0,0,0-.14.91,3.27,3.27,0,0,0,.1.94,3.06,3.06,0,0,0,.33.84,3.19,3.19,0,0,0,.56.75,4,4,0,0,0,1.58,1,1.63,1.63,0,0,0,.3.07,7,7,0,0,0,.78.11h.19a3.62,3.62,0,0,0,1.79-.52,4,4,0,0,0,.72-.59A3.32,3.32,0,0,0,36.75,40a3,3,0,0,0,0-1.6,2.44,2.44,0,0,0-.51-1,2.6,2.6,0,0,0-.82-.75,5.06,5.06,0,0,0-1-.45,3.23,3.23,0,0,0-.47-.15v4.82l.55-.1a1.78,1.78,0,0,0,.85-.44,1.87,1.87,0,0,0,.64-.7,1.77,1.77,0,0,0,.3-.93,1.89,1.89,0,0,0,0-1l-.26-.6a2.64,2.64,0,0,0-.89-.9l-.6-.25a2.5,2.5,0,0,0-1.33,0l-.54.1-.6.25a1.8,1.8,0,0,0-.7.64,1.14,1.14,0,0,0-.32.55,1.9,1.9,0,0,0-.22,1l.09.66.25.6a2.87,2.87,0,0,0,1.5,1.15,4.26,4.26,0,0,1,.47.15l-.6-.25a1.9,1.9,0,0,1,.4.21l-.5-.39.09.09-.39-.5.05.09-.25-.6,0,.09-.09-.66v.12l.09-.66c0,.05,0,.1,0,.14l.25-.59a1.4,1.4,0,0,1-.1.16l.39-.51a.77.77,0,0,1-.18.18l.5-.39a.82.82,0,0,1-.2.12l.6-.25-.27.07.67-.09H33.2l.67.09a1.64,1.64,0,0,1-.38-.1l.6.25a1.69,1.69,0,0,1-.29-.17l.51.39a1,1,0,0,1-.21-.21l.39.51a2.39,2.39,0,0,1-.13-.21l.26.6a.72.72,0,0,1-.07-.25l.09.67a1,1,0,0,1,0-.25l-.09.66a1,1,0,0,1,.08-.29l-.25.59a.79.79,0,0,1,.14-.23l-.39.5a.71.71,0,0,1,.15-.15l-.5.39A.72.72,0,0,1,34,40.1l-.6.25a.59.59,0,0,1,.19-.05l-.67.09h0a1.88,1.88,0,0,0,1-.21,1.85,1.85,0,0,0,.81-.52,2.83,2.83,0,0,0,.73-1.77l-.09-.66a2.5,2.5,0,0,0-.64-1.1l-.51-.4a2.53,2.53,0,0,0-1.26-.34Z" transform="translate(-1.11 -2.39)"/><path class="cls-2" d="M46.81,35.08a7.13,7.13,0,0,0-1.3.11,4.16,4.16,0,0,0-.85.33l-.14.07-.06,0c-.17.13-.38.27-.54.42a3.12,3.12,0,0,0-.87,1.51,3,3,0,0,0,0,1.5l0,.12a4.85,4.85,0,0,0,.27.62l0,.07a3,3,0,0,0,1.07,1l.07,0c.19.09.42.19.62.26l.17,0,.36.07c.34,0,.68.11,1,.13A5.89,5.89,0,0,0,48,41.34a3,3,0,0,0,.81-.32,2.76,2.76,0,0,0,1.06-1,3,3,0,0,0,.29-.7l0-.33c0-.12,0-.25,0-.37a5.06,5.06,0,0,0-.09-.72s0,0,0-.06a3.09,3.09,0,0,0-.14-.32c0-.11-.09-.22-.14-.33a3.37,3.37,0,0,0-.46-.61l-.05,0a4.61,4.61,0,0,0-.55-.44L48.68,36c-.29-.14-.6-.25-.9-.38l.6.26a1,1,0,0,1-.22-.13l.51.4-.09-.09.39.51,0,0a2.8,2.8,0,0,0-1.49-1.15,1.89,1.89,0,0,0-1,0,1.85,1.85,0,0,0-.93.29L45,36a2.53,2.53,0,0,0-.64,1.11l-.09.66a2.53,2.53,0,0,0,.34,1.26,3.08,3.08,0,0,0,1.14,1.09c.3.15.62.26.92.39l-.59-.25a1.18,1.18,0,0,1,.19.11l-.5-.39.12.11-.4-.5a.36.36,0,0,1,.07.1l-.25-.6s0,.06,0,.09l-.09-.67v.09l.09-.66s0,0,0,.06l.25-.6a.25.25,0,0,1,0,.07l.39-.51,0,.06.51-.39-.12.07.59-.25a1.8,1.8,0,0,1-.22.06l.66-.09a4,4,0,0,1-.92,0l.66.09a3.08,3.08,0,0,1-.6-.14l.6.25-.15-.08.51.39-.09-.09.39.5-.06-.09.26.6a.65.65,0,0,1,0-.13l.09.66a.57.57,0,0,1,0-.13l-.09.66a.94.94,0,0,1,0-.16l-.25.6a1,1,0,0,1,.1-.17l-.39.5a.68.68,0,0,1,.12-.12L47,40a.78.78,0,0,1,.2-.11l-.6.25a1.18,1.18,0,0,1,.31-.08l-.66.09a2.79,2.79,0,0,1,.58,0,2,2,0,0,0,1-.21,2,2,0,0,0,.81-.52,1.93,1.93,0,0,0,.51-.81,1.84,1.84,0,0,0,.22-1l-.09-.66a2.53,2.53,0,0,0-.64-1.11l-.51-.39a2.53,2.53,0,0,0-1.26-.34Z" transform="translate(-1.11 -2.39)"/><path class="cls-2" d="M27,45.53a8.75,8.75,0,0,0-1.25.87,2.2,2.2,0,0,0-.3.31,6.67,6.67,0,0,0-.48.64,5.41,5.41,0,0,0-.34.78,3.48,3.48,0,0,0,0,2.07,3.54,3.54,0,0,0,.81,1.37,3,3,0,0,0,.84.62,4.68,4.68,0,0,0,2,.52,3.86,3.86,0,0,0,2-.48,3,3,0,0,0,.77-.6,3.64,3.64,0,0,0,.82-1.41,1.05,1.05,0,0,0,.05-.19,7.68,7.68,0,0,0,.11-.82A1.48,1.48,0,0,0,32,49a6.35,6.35,0,0,0-.12-.86,5.71,5.71,0,0,0-.42-1,3.31,3.31,0,0,0-.29-.47c-.16-.24-.34-.47-.52-.69a3.67,3.67,0,0,0-.65-.53,2.76,2.76,0,0,0-2.24-.34,1.94,1.94,0,0,0-.85.45,1.8,1.8,0,0,0-.64.7,1.86,1.86,0,0,0-.3.93,2,2,0,0,0,0,1,2.6,2.6,0,0,0,1.15,1.49l.6.25a2.5,2.5,0,0,0,1.33,0h0l-.67.09h.08l-.67-.09.11,0-.6-.25.1.06L27,49.34l.17.18L26.74,49a4.38,4.38,0,0,1,.45.75l-.25-.59a2.44,2.44,0,0,1,.14.46L27,49a2.28,2.28,0,0,1,0,.37l.09-.67A1.58,1.58,0,0,1,27,49l.25-.6a.82.82,0,0,1-.12.2l.39-.5a1.21,1.21,0,0,1-.16.16l.5-.39a1.18,1.18,0,0,1-.19.11l.6-.25a2,2,0,0,1-.33.09l.66-.09a1.77,1.77,0,0,1-.46,0l.66.09a2.55,2.55,0,0,1-.54-.15l.59.25a1.57,1.57,0,0,1-.25-.14l.51.39a.91.91,0,0,1-.17-.17l.39.51-.1-.17.25.59a.79.79,0,0,1-.06-.22l.09.66a1.22,1.22,0,0,1,0-.27l-.09.66a1.81,1.81,0,0,1,.09-.31l-.25.6a1.12,1.12,0,0,1,.16-.28l-.39.51a1.85,1.85,0,0,1,.37-.37l-.51.39a5.79,5.79,0,0,1,.67-.42,1.91,1.91,0,0,0,.71-.64,1.88,1.88,0,0,0,.44-.85,1.9,1.9,0,0,0,.05-1,2,2,0,0,0-.3-.93A2.56,2.56,0,0,0,29,45.28l-.67-.09a2.53,2.53,0,0,0-1.26.34Z" transform="translate(-1.11 -2.39)"/><path class="cls-2" d="M16.24,44a3.22,3.22,0,0,0-1.07.1,3.33,3.33,0,0,0-1,.42,3.82,3.82,0,0,0-1.64,2.14,3.27,3.27,0,0,0-.14,1.08,6,6,0,0,0,.11.85,4.38,4.38,0,0,0,.32.82,3.79,3.79,0,0,0,1.42,1.5,5,5,0,0,0,.94.43,3.22,3.22,0,0,0,.44.14l.41.08a7.48,7.48,0,0,0,1.17.12,4.49,4.49,0,0,0,1.1-.15,3.78,3.78,0,0,0,1.49-.86,2.81,2.81,0,0,0,.7-1.23,3,3,0,0,0,0-1.49,5.31,5.31,0,0,0-.41-1,3.23,3.23,0,0,0-.27-.44,6.4,6.4,0,0,0-.71-.85,5.59,5.59,0,0,0-1.94-1.14,1.89,1.89,0,0,0-1,0,1.71,1.71,0,0,0-.92.3,1.83,1.83,0,0,0-.71.64,1.78,1.78,0,0,0-.44.85,2.5,2.5,0,0,0,.25,1.93l.39.5a2.41,2.41,0,0,0,1.1.64l.13,0-.6-.25a2.59,2.59,0,0,1,.58.34l-.51-.4a3.05,3.05,0,0,1,.44.44l-.39-.5a2.77,2.77,0,0,1,.34.57l-.26-.59a2.06,2.06,0,0,1,.12.35l-.09-.66v.1l.09-.66v0l.25-.6a.22.22,0,0,1-.05.08l.39-.5-.07.06.51-.39a.91.91,0,0,1-.22.11l.6-.25a1.89,1.89,0,0,1-.34.09l.67-.09a2.72,2.72,0,0,1-.7,0l.66.09a3.33,3.33,0,0,1-.89-.23l.6.25a2.06,2.06,0,0,1-.41-.23l.5.39a2.13,2.13,0,0,1-.26-.26l.39.5a1.35,1.35,0,0,1-.15-.26l.25.59a1.09,1.09,0,0,1-.08-.31l.09.66a1.71,1.71,0,0,1,0-.32l-.09.66a1.58,1.58,0,0,1,.09-.31l-.25.6a1,1,0,0,1,.14-.24l-.39.5.22-.22-.5.39a1.17,1.17,0,0,1,.27-.15l-.6.25a1.09,1.09,0,0,1,.31-.08l-.67.09a.86.86,0,0,1,.32,0,1.88,1.88,0,0,0,1-.22,1.85,1.85,0,0,0,.81-.52,1.83,1.83,0,0,0,.51-.8,1.88,1.88,0,0,0,.22-1A2.53,2.53,0,0,0,18,44.69l-.51-.39A2.43,2.43,0,0,0,16.24,44Z" transform="translate(-1.11 -2.39)"/><path class="cls-2" d="M38.37,45.06l0,0a5.34,5.34,0,0,0-.41.53l-.06.1a3.22,3.22,0,0,0-.4,1.46v.12c0,.24.06.51.1.76a.56.56,0,0,0,0,.12c0,.11.1.24.14.34s.1.25.16.37a3.32,3.32,0,0,0,1.2,1.24,3.41,3.41,0,0,0,1.79.48,4.23,4.23,0,0,0,1.88-.51,1.49,1.49,0,0,0,.3-.18c.21-.15.42-.31.62-.48a.86.86,0,0,0,.14-.13A2.85,2.85,0,0,0,44.58,48l.05-.33c0-.12,0-.24,0-.36v-.07a3,3,0,0,0-.36-1.35,2.31,2.31,0,0,0-.54-.7,3.21,3.21,0,0,0-.76-.55,4.88,4.88,0,0,0-1-.37c-.35-.08-.71-.11-1.06-.16a4.4,4.4,0,0,0-1,0,2,2,0,0,0-1,.21,2,2,0,0,0-.81.52,1.93,1.93,0,0,0-.51.81,1.84,1.84,0,0,0-.22,1l.09.66a2.63,2.63,0,0,0,.64,1.11l.51.39a2.53,2.53,0,0,0,1.26.34,4.18,4.18,0,0,1,1,0l-.66-.09a2.59,2.59,0,0,1,.68.16L40.46,49a1.49,1.49,0,0,1,.24.14l-.51-.39a.49.49,0,0,1,.13.12l-.4-.51a.75.75,0,0,1,.07.12l-.25-.6a.19.19,0,0,1,0,.07l-.09-.66a.17.17,0,0,1,0,.1l.09-.66a.26.26,0,0,1,0,.08l.26-.59a.56.56,0,0,0-.05.08l.39-.51a1.26,1.26,0,0,1-.24.22l.5-.39a2,2,0,0,1-.44.27l.59-.26a1.27,1.27,0,0,1-.39.12l.66-.09a1.5,1.5,0,0,1-.3,0l.67.09a.94.94,0,0,1-.24-.06l.59.25a1,1,0,0,1-.17-.1l.51.39a.81.81,0,0,1-.16-.16l.39.5a1.48,1.48,0,0,1-.13-.21l.25.59a1.6,1.6,0,0,1-.05-.21l.09.66a1.09,1.09,0,0,1,0-.18l-.08.66a.47.47,0,0,1,0-.16l-.25.6a.75.75,0,0,1,.07-.12l-.39.51.06-.07a1.85,1.85,0,0,0,.52-.81,2.23,2.23,0,0,0,0-1.93,1.82,1.82,0,0,0-.52-.8l-.5-.39a2.43,2.43,0,0,0-1.26-.34l-.67.09a2.5,2.5,0,0,0-1.1.64Z" transform="translate(-1.11 -2.39)"/><path class="cls-2" d="M22.58,5.69l-.14,0,.67-.09-.44,0a6,6,0,0,0-1,.12A3.18,3.18,0,0,0,20,6.7c-.13.15-.3.37-.41.53l0,.06a5,5,0,0,0-.27.63.24.24,0,0,0,0,.08,2.79,2.79,0,0,0,0,1.57,3.1,3.1,0,0,0,.32.72,5.43,5.43,0,0,0,.42.53l.05.06a6.82,6.82,0,0,0,.79.63,7.92,7.92,0,0,0,.67.46,6.74,6.74,0,0,0,.92.4,3.83,3.83,0,0,0,1,.18h.15a6.83,6.83,0,0,0,.79-.11,3.08,3.08,0,0,0,1.76-1.16,2.64,2.64,0,0,0,.55-1.08,3,3,0,0,0,0-1.58,3.78,3.78,0,0,0-.3-.72l-.05-.07c-.12-.17-.28-.38-.42-.54a3.37,3.37,0,0,0-.36-.3,2,2,0,0,0-.66-.38,2.33,2.33,0,0,0-1.25-.26,2,2,0,0,0-1,.21,2,2,0,0,0-.81.52,1.93,1.93,0,0,0-.51.81,1.84,1.84,0,0,0-.22,1l.09.66a2.63,2.63,0,0,0,.64,1.11l.51.39a2.53,2.53,0,0,0,1.26.34h.13l-.66-.09.15,0-.6-.25.11.06-.5-.39a.86.86,0,0,1,.13.14l-.39-.5a.39.39,0,0,1,.08.14l-.25-.6a.42.42,0,0,1,0,.16l-.09-.67a.29.29,0,0,1,0,.13l.09-.67a.5.5,0,0,1,0,.13l.25-.6a.75.75,0,0,1-.07.12l.39-.5-.12.12.5-.39a.53.53,0,0,1-.15.08l.6-.25a1.09,1.09,0,0,1-.24.07l.66-.09a.76.76,0,0,1-.26,0l.66.09a1.78,1.78,0,0,1-.33-.09l.59.25a5,5,0,0,1-1-.64l.5.39a2,2,0,0,1-.3-.28l.39.5-.06-.1.25.6a.23.23,0,0,1,0-.11l.08.67V8.68l-.09.66,0-.09-.25.6A.47.47,0,0,1,24,9.73l-.39.51.12-.13-.5.39a1.18,1.18,0,0,1,.19-.11l-.6.26a.9.9,0,0,1,.27-.07l-.66.09a3.39,3.39,0,0,1,.45,0l.22,0a6.21,6.21,0,0,0,.85-.12,1.89,1.89,0,0,0,.85-.45,1.87,1.87,0,0,0,.64-.7,1.77,1.77,0,0,0,.3-.93,1.89,1.89,0,0,0,0-1l-.26-.59a2.48,2.48,0,0,0-.89-.9l-.6-.25a2.5,2.5,0,0,0-1.33,0Z" transform="translate(-1.11 -2.39)"/><path class="cls-2" d="M12.73,9.11l-.14,0,.67-.09a3.17,3.17,0,0,1-.43,0,6.14,6.14,0,0,0-1.05.12,3.11,3.11,0,0,0-1.59.93,5.56,5.56,0,0,0-.42.54l0,.05a5,5,0,0,0-.27.63s0,.05,0,.08a2.89,2.89,0,0,0,0,1.57,3.59,3.59,0,0,0,.32.72c.12.17.28.38.42.54l0,.05a7.51,7.51,0,0,0,.79.63,8.09,8.09,0,0,0,.68.46,7.44,7.44,0,0,0,.91.41,4.27,4.27,0,0,0,1,.17h.15a6.83,6.83,0,0,0,.79-.11,3.08,3.08,0,0,0,1.76-1.16,2.64,2.64,0,0,0,.55-1.08,2.92,2.92,0,0,0,0-1.58,3.23,3.23,0,0,0-.3-.72l-.05-.07a5.24,5.24,0,0,0-.42-.54,2.12,2.12,0,0,0-.36-.3,1.9,1.9,0,0,0-.66-.38,2.32,2.32,0,0,0-1.24-.26,2,2,0,0,0-1,.21,2,2,0,0,0-.8.52,1.85,1.85,0,0,0-.52.81,1.76,1.76,0,0,0-.21,1l.08.66a2.5,2.5,0,0,0,.65,1.11l.5.39a2.54,2.54,0,0,0,1.27.34H14l-.66-.09.15,0-.59-.25.11.07-.51-.4.14.14-.39-.5s0,.09.08.14l-.26-.6a.75.75,0,0,1,.05.16L12,12.82V13l.09-.67a.5.5,0,0,1,0,.13l.25-.6a.47.47,0,0,1-.07.12l.39-.5a.68.68,0,0,1-.12.12l.51-.39-.16.09.6-.26a.73.73,0,0,1-.24.07l.66-.09H13.6l.66.08a1.35,1.35,0,0,1-.33-.09l.6.25a4.8,4.8,0,0,1-1-.64L14,11a2.62,2.62,0,0,1-.3-.28l.39.5-.06-.09.25.59,0-.11.09.67a.33.33,0,0,1,0-.14l-.09.67a.3.3,0,0,1,0-.1l-.25.6a.75.75,0,0,1,.07-.12l-.39.51a.8.8,0,0,1,.13-.13l-.51.39a1.18,1.18,0,0,1,.19-.11l-.6.26A.9.9,0,0,1,13.2,14l-.66.09a3.46,3.46,0,0,1,.46,0l.21,0a6,6,0,0,0,.85-.12,1.89,1.89,0,0,0,.85-.45,2,2,0,0,0,.65-.7,1.85,1.85,0,0,0,.29-.93,1.89,1.89,0,0,0,0-1l-.25-.59a2.5,2.5,0,0,0-.9-.9l-.6-.25a2.5,2.5,0,0,0-1.33,0Z" transform="translate(-1.11 -2.39)"/></svg>